<svg width="29" height="28" viewBox="0 0 29 28" fill="none" xmlns="http://www.w3.org/2000/svg">
<g id="Google " clip-path="url(#clip0_2005_115)">
<path id="Vector" d="M28.227 14.3225C28.227 13.3709 28.1498 12.414 27.9852 11.4778H14.78V16.8689H22.342C22.0282 18.6077 21.0199 20.1458 19.5435 21.1232V24.6213H24.055C26.7043 22.1829 28.227 18.582 28.227 14.3225Z" fill="#4285F4"/>
<path id="Vector_2" d="M14.78 28.0009C18.5558 28.0009 21.7401 26.7611 24.0602 24.6211L19.5487 21.1231C18.2935 21.977 16.673 22.4606 14.7851 22.4606C11.1327 22.4606 8.0359 19.9965 6.92475 16.6836H2.26923V20.2897C4.64586 25.0172 9.48657 28.0009 14.78 28.0009V28.0009Z" fill="#34A853"/>
<path id="Vector_3" d="M6.91966 16.6837C6.33322 14.9449 6.33322 13.0621 6.91966 11.3234V7.71729H2.26928C0.283612 11.6732 0.283612 16.3339 2.26928 20.2898L6.91966 16.6837V16.6837Z" fill="#FBBC04"/>
<path id="Vector_4" d="M14.78 5.54127C16.7759 5.51041 18.705 6.26146 20.1505 7.64012L24.1476 3.64305C21.6166 1.26642 18.2575 -0.0402103 14.78 0.000943444C9.48657 0.000943444 4.64586 2.98459 2.26923 7.71728L6.9196 11.3234C8.02561 8.00536 11.1276 5.54127 14.78 5.54127V5.54127Z" fill="#EA4335"/>
</g>
<defs>
<clipPath id="clip0_2005_115">
<rect width="28" height="28" fill="white" transform="translate(0.5)"/>
</clipPath>
</defs>
</svg>
